<?xml version="1.0" encoding="UTF-8"?>
<svg version="1.1" xmlns="http://www.w3.org/2000/svg" width="4096" height="2884">
<path d="M0 0 C1.82540452 -0.00551503 1.82540452 -0.00551503 3.68768591 -0.01114148 C7.05811602 -0.02024178 10.42849755 -0.02487216 13.79893529 -0.02753079 C17.43715692 -0.03144504 21.07536459 -0.04102252 24.71357727 -0.04974365 C33.49578693 -0.06947567 42.27799769 -0.07956978 51.06022397 -0.08847144 C55.20022939 -0.09285938 59.34023354 -0.09822485 63.48023796 -0.10346031 C77.24957673 -0.12046874 91.01891471 -0.13496202 104.78826237 -0.14220905 C108.35879581 -0.14411881 111.92932925 -0.14603916 115.49986267 -0.147995 C116.83094883 -0.14872061 116.83094883 -0.14872061 118.18892562 -0.14946087 C132.55812329 -0.15775794 146.92723764 -0.18309112 161.29639895 -0.21557567 C176.06252537 -0.24868444 190.8286095 -0.26666123 205.59477323 -0.26985329 C213.87992648 -0.27201477 222.16495817 -0.28071035 230.45007515 -0.30631447 C237.50711859 -0.32807363 244.56401092 -0.33604631 251.6210841 -0.32634769 C255.21770274 -0.32181812 258.81400995 -0.32361008 262.4105854 -0.34310913 C266.32072586 -0.36412391 270.23044282 -0.35370696 274.140625 -0.34057617 C275.26205888 -0.35154542 276.38349277 -0.36251466 277.53890949 -0.37381631 C292.21658736 -0.25541323 305.66424698 4.70724151 316.01475525 15.14717102 C325.109451 25.54110902 328.33649786 40.03407548 329.82725525 53.39717102 C330.7795865 61.90071255 332.79576602 70.06990974 334.85850525 78.36201477 C335.73387544 81.90110908 336.45602109 85.41726118 337.01475525 89.02217102 C338.17559321 95.9650876 340.70340872 102.52176821 343.01475525 109.14717102 C343.49966286 110.60489533 343.98265075 112.06325927 344.463974 113.52217102 C348.37302049 125.28308465 352.55250969 137.01071215 358.01475525 148.14717102 C358.83266541 149.8235968 358.83266541 149.8235968 359.667099 151.53388977 C363.26232857 158.84067687 367.02152712 166.04923355 371.01475525 173.14717102 C371.57034119 174.13588196 372.12592712 175.1245929 372.698349 176.14326477 C376.00784405 181.929353 379.52242736 187.44786881 383.4092865 192.86201477 C384.81012028 194.85590226 386.08217523 196.86706286 387.32725525 198.95967102 C390.37816125 203.94653399 394.05144174 208.47605918 397.6436615 213.07685852 C399.4843734 215.46038332 401.24591755 217.85555424 402.95225525 220.33467102 C404.88646339 223.30932199 404.88646339 223.30932199 408.01475525 225.14717102 C408.48913025 225.95154602 408.96350525 226.75592102 409.45225525 227.58467102 C411.07415584 230.24458798 412.55447908 231.32180483 415.01475525 233.14717102 C415.47881775 234.10623352 415.47881775 234.10623352 415.95225525 235.08467102 C417.40923754 237.91293076 419.5023044 239.21901107 422.01475525 241.14717102 C424.61536094 243.61774643 426.94522715 246.05719348 429.13975525 248.89717102 C432.29933732 252.7698876 436.23604408 255.68954009 440.1280365 258.79170227 C442.8187582 260.98724379 445.35364125 263.2765457 447.88975525 265.64717102 C452.2675346 269.66484272 456.9299841 272.9988092 461.90098572 276.22920227 C463.3040967 277.15531467 464.66423439 278.1459228 466.01475525 279.14717102 C466.01475525 279.80717102 466.01475525 280.46717102 466.01475525 281.14717102 C466.98413025 281.41529602 467.95350525 281.68342102 468.95225525 281.95967102 C469.96288025 282.35154602 470.97350525 282.74342102 472.01475525 283.14717102 C472.34475525 284.13717102 472.67475525 285.12717102 473.01475525 286.14717102 C474.65808484 286.86945217 476.32934209 287.5294294 478.01475525 288.14717102 C479.47759055 289.06636735 480.91566954 290.02606118 482.32725525 291.02217102 C485.83703125 293.42421041 489.35065077 295.3883677 493.182724 297.21748352 C495.94708268 298.6202924 498.43744702 300.42896554 501.01475525 302.14717102 C503.6437023 303.55880129 506.32909191 304.8475018 509.01475525 306.14717102 C510.59915768 306.93669588 512.18243752 307.72847639 513.76475525 308.52217102 C515.03125916 309.15252258 515.03125916 309.15252258 516.323349 309.79560852 C518.17596538 310.72594999 520.02201205 311.66945233 521.8624115 312.62373352 C531.09590551 317.36821661 540.5905639 321.09989424 550.46788025 324.27217102 C553.18477355 325.20558222 555.85301714 326.24548034 558.52867126 327.29023743 C566.54506096 330.39896488 574.5319991 332.65653422 582.88926697 334.6320343 C602.86703041 339.47387681 602.86703041 339.47387681 612.01475525 344.14717102 C613.03569275 344.63443665 614.05663025 345.12170227 615.10850525 345.62373352 C624.0569396 349.94881012 624.0569396 349.94881012 627.01475525 353.14717102 C627.79850525 353.60092102 628.58225525 354.05467102 629.38975525 354.52217102 C638.49060531 360.15603058 644.25987515 370.3779808 648.01475525 380.14717102 C648.53875916 381.47941711 648.53875916 381.47941711 649.073349 382.83857727 C652.90976984 392.94255743 654.31115512 401.8390818 654.27545166 412.65176392 C654.27927721 413.88830332 654.28310275 415.12484271 654.28704423 416.398853 C654.29554448 419.81010276 654.29515322 423.22113568 654.29086363 426.63237894 C654.28838872 430.31961268 654.29742008 434.00682151 654.30490112 437.69404602 C654.31762926 444.90987307 654.31944414 452.12566287 654.31710086 459.34149925 C654.31531531 465.20932104 654.31707242 471.07713156 654.3213253 476.94495201 C654.32192049 477.78120238 654.32251568 478.61745275 654.32312891 479.47904405 C654.3243407 481.17809247 654.32555484 482.87714089 654.32677128 484.5761893 C654.33763971 500.49862607 654.33548772 516.42104164 654.32938644 532.3434796 C654.32421877 546.8942117 654.33546999 561.44487682 654.35448465 575.99559567 C654.37387994 590.95278901 654.38211603 605.90995069 654.3783614 620.86715668 C654.37645181 629.2578379 654.37891322 637.64846214 654.39307594 646.03913307 C654.40501233 653.18285896 654.40636943 660.3264928 654.39428578 667.47022001 C654.38841269 671.11123312 654.38725382 674.75207803 654.39928818 678.39307976 C654.41221198 682.34934474 654.4016451 686.30535724 654.38897705 690.2616272 C654.39635134 691.39949136 654.40372562 692.53735551 654.41132337 693.70970041 C654.32198298 707.02186755 651.01248547 723.38624966 641.3780365 733.26826477 C629.62530125 742.61217494 616.62364997 744.97133973 602.01475525 746.14717102 C601.18959412 746.2148468 600.36443298 746.28252258 599.51426697 746.35224915 C593.68415003 746.79542667 587.85954032 747.01692511 582.01475525 747.14717102 C581.11482849 747.16908508 580.21490173 747.19099915 579.28770447 747.21357727 C563.29322947 747.54731697 547.44163475 746.64772176 531.49913025 745.40742493 C528.43211355 745.17834422 525.36661574 744.98736953 522.29600525 744.81513977 C496.99820679 743.23762048 471.0881499 738.03232228 447.01475525 730.14717102 C445.99381775 729.81870178 445.99381775 729.81870178 444.95225525 729.4835968 C441.80340242 728.46806101 438.66821369 727.42305808 435.53819275 726.35029602 C433.17681487 725.54397187 430.80667221 724.7629006 428.42881775 724.00654602 C411.33389761 718.53908756 395.13338764 710.98261732 379.01475525 703.14717102 C378.37795837 702.83972961 377.7411615 702.53228821 377.08506775 702.2155304 C367.71132803 697.68216064 367.71132803 697.68216064 365.010849 695.60810852 C362.76476857 693.96420621 360.59925467 693.17798293 358.01475525 692.14717102 C355.56907366 690.76386695 353.16237143 689.35856363 350.76475525 687.89717102 C350.10016296 687.49530579 349.43557068 687.09344055 348.75083923 686.67939758 C344.50849687 684.09939242 340.32905953 681.44618288 336.2374115 678.63154602 C332.88049514 676.38966866 329.44470856 674.2750655 326.01475525 672.14717102 C323.91798676 704.27066798 323.01408063 736.02445993 326.01475525 768.14717102 C326.07791931 768.82560059 326.14108337 769.50403015 326.2061615 770.20301819 C327.94937976 788.71456477 330.52890864 806.5543906 335.36094666 824.55464172 C336.01576071 827.15115795 336.54668809 829.74715751 337.04600525 832.37763977 C337.84814884 836.53778467 338.99062253 840.45387383 340.38975525 844.45967102 C340.83774994 845.75867504 341.28434167 847.05816368 341.729599 848.35810852 C341.94857849 848.99587219 342.16755798 849.63363586 342.39317322 850.29072571 C343.31230692 853.03585246 344.12931914 855.80941367 344.95225525 858.58467102 C346.48357544 863.60640931 348.18883757 868.53924918 350.01475525 873.45967102 C350.25186218 874.10541077 350.48896912 874.75115051 350.73326111 875.41645813 C352.23694549 879.40364705 353.98088093 883.18767343 355.92149353 886.97993469 C357.13235905 889.38030388 358.27818772 891.80560873 359.417099 894.24092102 C359.83282166 895.12650696 360.24854431 896.0120929 360.67686462 896.92451477 C361.52642345 898.73812121 362.37278555 900.55322858 363.21592712 902.36982727 C365.81370007 907.88658156 368.65114726 913.06230629 372.01475525 918.14717102 C372.68120056 919.16424133 373.34764587 920.18131165 374.0342865 921.22920227 C375.23949784 923.06458947 376.44788546 924.89789452 377.6592865 926.72920227 C379.01475525 929.14717102 379.01475525 929.14717102 379.01475525 932.14717102 C379.67475525 932.14717102 380.33475525 932.14717102 381.01475525 932.14717102 C383.67861237 935.58214467 385.99159093 939.02606661 388.07725525 942.83467102 C389.83206658 945.83483233 391.54516138 947.76273556 394.01475525 950.14717102 C394.34475525 951.13717102 394.67475525 952.12717102 395.01475525 953.14717102 C396.65692663 954.83797814 398.3279032 956.50093722 400.01475525 958.14717102 C401.74435031 960.15425564 403.45042292 962.16967004 405.13975525 964.20967102 C418.40268022 980.03436689 432.66824816 994.42390931 448.88975525 1007.22920227 C449.59100525 1007.86213196 450.29225525 1008.49506165 451.01475525 1009.14717102 C451.01475525 1009.80717102 451.01475525 1010.46717102 451.01475525 1011.14717102 C451.77788025 1011.43592102 452.54100525 1011.72467102 453.32725525 1012.02217102 C456.01475525 1013.14717102 456.01475525 1013.14717102 459.01475525 1015.14717102 C459.01475525 1015.80717102 459.01475525 1016.46717102 459.01475525 1017.14717102 C459.79850525 1017.45654602 460.58225525 1017.76592102 461.38975525 1018.08467102 C464.01475525 1019.14717102 464.01475525 1019.14717102 466.01475525 1020.14717102 C466.01475525 1020.80717102 466.01475525 1021.46717102 466.01475525 1022.14717102 C466.86747009 1022.55129211 466.86747009 1022.55129211 467.7374115 1022.96357727 C470.10380029 1024.19345 472.24870024 1025.58380946 474.45225525 1027.08467102 C477.5842141 1029.21440304 480.76189642 1031.20748479 484.01475525 1033.14717102 C485.7268437 1034.22456001 487.43502388 1035.30817844 489.13975525 1036.39717102 C490.10268494 1037.00947571 491.06561462 1037.6217804 492.057724 1038.25263977 C493.96321857 1039.47346522 495.86223086 1040.70449806 497.7530365 1041.94795227 C503.29365045 1045.56418511 508.89640675 1048.72718628 514.85069275 1051.61201477 C517.05631561 1052.68215031 519.24821608 1053.78083683 521.42881775 1054.90107727 C532.4133947 1060.53950203 543.71649401 1064.73105136 555.3467865 1068.82295227 C557.90483414 1069.74646468 560.43518662 1070.69357636 562.963974 1071.69013977 C570.43058321 1074.61880615 577.61700408 1076.91851026 585.526474 1078.43232727 C589.2104616 1079.18727658 592.7746202 1080.17623451 596.38975525 1081.20967102 C603.42433667 1083.11441922 610.39748889 1084.11078394 617.62413025 1084.87763977 C620.34260516 1085.18413449 623.05278033 1085.53770978 625.76475525 1085.89717102 C637.51129654 1087.44853039 649.16924656 1088.7603789 661.01475525 1089.14717102 C662.1336615 1089.18842102 663.25256775 1089.22967102 664.40538025 1089.27217102 C683.32768002 1089.6177838 702.40897958 1087.80119424 721.02159119 1084.48213196 C724.00698792 1083.98042148 727.01013318 1083.63825141 730.01475525 1083.27217102 C738.16292066 1082.13677092 745.99273517 1079.89723324 753.90830994 1077.71260071 C756.51166534 1077.01378625 759.13492792 1076.42504042 761.76475525 1075.83467102 C775.39005096 1072.44263936 788.7100947 1067.26006797 801.63975525 1061.83467102 C802.80196594 1061.34704285 802.80196594 1061.34704285 803.98765564 1060.8495636 C807.85757156 1059.18819468 811.42103876 1057.35818716 815.01475525 1055.14717102 C815.94288025 1054.85842102 816.87100525 1054.56967102 817.82725525 1054.27217102 C821.29223246 1053.04923789 823.9490987 1051.36257936 827.010849 1049.36982727 C829.86652097 1047.62747771 832.9430051 1046.46363537 836.01475525 1045.14717102 C838.06690321 1043.94601299 840.06353182 1042.67820827 842.06163025 1041.38935852 C843.75866529 1040.31004423 845.5082628 1039.31425335 847.26475525 1038.33467102 C853.85133901 1034.62498592 860.0528143 1030.20021312 866.260849 1025.89717102 C869.01475525 1024.14717102 869.01475525 1024.14717102 871.01475525 1024.14717102 C871.01475525 1023.48717102 871.01475525 1022.82717102 871.01475525 1022.14717102 C873.57622095 1019.85068453 874.49443097 1019.14717102 878.01475525 1019.14717102 C878.01475525 1018.48717102 878.01475525 1017.82717102 878.01475525 1017.14717102 C880.16717642 1015.32015055 882.3287384 1013.59842231 884.57725525 1011.89717102 C885.86844254 1010.90214394 887.15881656 1009.90606057 888.448349 1008.90888977 C889.37816589 1008.19225159 889.37816589 1008.19225159 890.32676697 1007.46113586 C894.81847287 1003.96469948 899.05497962 1000.23893917 903.01475525 996.14717102 C905.39148194 993.70950261 907.68156763 991.40144578 910.38975525 989.33467102 C913.33847729 986.87740265 915.70231991 984.17347992 918.17100525 981.24482727 C919.53184324 979.69658574 920.96143899 978.20815895 922.4249115 976.75654602 C925.10001358 974.06126971 927.52796975 971.25683506 929.95225525 968.33467102 C930.38538025 967.81421204 930.81850525 967.29375305 931.26475525 966.75752258 C934.2860458 963.1026629 937.14176288 959.36086941 939.85850525 955.47529602 C940.24006775 955.03701477 940.62163025 954.59873352 941.01475525 954.14717102 C941.67475525 954.14717102 942.33475525 954.14717102 943.01475525 954.14717102 C943.07663025 953.61092102 943.13850525 953.07467102 943.20225525 952.52217102 C944.15177667 949.74664686 945.70584578 947.96281059 947.66319275 945.80732727 C949.36667777 943.71489625 950.64531558 941.47219021 952.01475525 939.14717102 C953.3642624 937.0608164 954.71893207 934.97779672 956.07725525 932.89717102 C963.74642492 921.03250504 970.97120582 908.92779195 977.01475525 896.14717102 C977.29415955 895.56225891 977.57356384 894.9773468 977.86143494 894.37471008 C980.88206657 888.04686562 983.82307974 881.71202789 986.45225525 875.20967102 C990.68140913 864.89500199 995.55645292 854.26477431 1002.01475525 845.14717102 C1002.67475525 845.14717102 1003.33475525 845.14717102 1004.01475525 845.14717102 C1004.24163025 844.59029602 1004.46850525 844.03342102 1004.70225525 843.45967102 C1007.12895779 839.18405225 1010.44725898 836.00800284 1015.01475525 834.14717102 C1015.01475525 833.48717102 1015.01475525 832.82717102 1015.01475525 832.14717102 C1016.3455064 831.46381232 1017.68050412 830.78832502 1019.026474 830.13545227 C1020.4233319 829.4411398 1021.79991598 828.70524995 1023.1592865 827.94013977 C1040.3048911 819.00282462 1061.70621182 820.70845617 1080.43370056 820.74311829 C1083.24497337 820.73904004 1086.05622932 820.73053412 1088.86749268 820.72232056 C1095.66407609 820.70526362 1102.46056653 820.70426508 1109.25716576 820.70953346 C1114.79091182 820.71360148 1120.32463075 820.71210067 1125.85837555 820.7067852 C1126.6508158 820.70603678 1127.44325605 820.70528836 1128.25970964 820.70451726 C1129.87039441 820.70298552 1131.48107918 820.70144717 1133.09176394 820.69990229 C1148.14286365 820.68622438 1163.19391116 820.69158139 1178.24500963 820.7030875 C1191.95924546 820.71301247 1205.67334622 820.70008354 1219.38756123 820.67615331 C1233.53155947 820.65166259 1247.67549506 820.64217894 1261.81951404 820.64880604 C1269.73535514 820.65227654 1277.65109257 820.65021146 1285.56691742 820.63255501 C1292.30602344 820.61770735 1299.04495278 820.61735893 1305.7840558 820.63462592 C1309.21005084 820.64303715 1312.6354783 820.64329536 1316.06149483 820.62997437 C1340.16471304 820.54349895 1368.24031868 820.82639819 1388.4236908 835.97749329 C1390.13717147 837.27926995 1390.13717147 837.27926995 1392.62413025 838.67842102 C1395.45104069 840.41521567 1397.79752392 842.43109497 1400.26475525 844.64717102 C1401.1361615 845.42060852 1402.00756775 846.19404602 1402.90538025 846.99092102 C1405.01475525 849.14717102 1405.01475525 849.14717102 1406.01475525 852.14717102 C1406.91194275 853.01342102 1406.91194275 853.01342102 1407.82725525 853.89717102 C1420.97976487 867.42546663 1422.62834619 889.75004442 1422.49009705 907.50068665 C1422.02929967 924.10462525 1418.93517463 940.31984028 1414.17100525 956.19795227 C1413.09195215 959.79450587 1412.24425348 963.41307051 1411.45225525 967.08467102 C1410.35083492 972.05039656 1408.80118288 976.65721406 1406.98350525 981.40107727 C1405.96391953 984.29127389 1405.22080751 987.16563511 1404.51475525 990.14717102 C1403.35247439 995.02875063 1401.81964141 999.62184701 1400.04600525 1004.31123352 C1398.94669609 1007.3343337 1398.00222354 1010.37892986 1397.07725525 1013.45967102 C1393.80809197 1024.22119684 1389.93734172 1034.63416115 1385.3467865 1044.89326477 C1383.93822411 1048.16239157 1383.93822411 1048.16239157 1382.9874115 1051.75654602 C1382.12267284 1054.77097638 1381.11109444 1057.20911018 1379.63975525 1059.95967102 C1377.97514171 1063.18727925 1376.45900339 1066.38875446 1375.13975525 1069.77217102 C1369.94391374 1083.02981424 1363.81345012 1095.58169247 1357.08946228 1108.12373352 C1355.7909268 1110.56859086 1354.54908923 1113.03817851 1353.32725525 1115.52217102 C1350.38357858 1121.48259434 1347.20299677 1127.31483497 1344.01475525 1133.14717102 C1343.64350525 1133.82908508 1343.27225525 1134.51099915 1342.88975525 1135.21357727 C1340.64326038 1139.24790763 1338.10401167 1143.04466505 1335.479599 1146.83857727 C1333.77820396 1149.51997585 1332.43088164 1152.30455633 1331.01475525 1155.14717102 C1329.53972921 1157.79988041 1328.00224845 1160.4127208 1326.45225525 1163.02217102 C1326.05329041 1163.7105304 1325.65432556 1164.39888977 1325.24327087 1165.10810852 C1324.22418489 1166.82303119 1323.12568295 1168.49026558 1322.01475525 1170.14717102 C1321.35475525 1170.14717102 1320.69475525 1170.14717102 1320.01475525 1170.14717102 C1319.82913025 1170.93092102 1319.64350525 1171.71467102 1319.45225525 1172.52217102 C1317.76650184 1176.77320136 1315.4379314 1180.04864168 1312.760849 1183.73310852 C1311.32984608 1185.71154209 1309.99970844 1187.70603801 1308.70225525 1189.77217102 C1308.14538025 1190.55592102 1307.58850525 1191.33967102 1307.01475525 1192.14717102 C1306.35475525 1192.14717102 1305.69475525 1192.14717102 1305.01475525 1192.14717102 C1304.70538025 1193.41560852 1304.70538025 1193.41560852 1304.38975525 1194.70967102 C1302.94451139 1198.32278066 1301.3531997 1200.27277239 1298.7842865 1203.10420227 C1296.7269377 1205.47946368 1294.91035943 1207.97006287 1293.07725525 1210.52217102 C1288.19663097 1217.30856287 1283.15691824 1223.90829416 1277.667099 1230.21357727 C1275.63356185 1232.5932484 1273.67136187 1235.02644221 1271.70225525 1237.45967102 C1267.92874096 1242.09515558 1264.00480554 1246.55584391 1259.96006775 1250.95576477 C1257.98793201 1253.09987062 1257.98793201 1253.09987062 1256.38194275 1255.43232727 C1255.70518494 1256.28117493 1255.70518494 1256.28117493 1255.01475525 1257.14717102 C1254.35475525 1257.14717102 1253.69475525 1257.14717102 1253.01475525 1257.14717102 C1252.78788025 1257.68857727 1252.56100525 1258.22998352 1252.32725525 1258.78779602 C1250.60180417 1261.88949974 1248.40182311 1264.27417203 1246.01475525 1266.89717102 C1245.56358337 1267.40377258 1245.1124115 1267.91037415 1244.64756775 1268.43232727 C1243.48114713 1269.71262919 1242.25191554 1270.93508831 1241.01475525 1272.14717102 C1240.35475525 1272.14717102 1239.69475525 1272.14717102 1239.01475525 1272.14717102 C1238.61256775 1273.04435852 1238.61256775 1273.04435852 1238.20225525 1273.95967102 C1237.01558119 1276.14564956 1235.91876412 1277.56049696 1234.01475525 1279.14717102 C1233.35475525 1279.14717102 1232.69475525 1279.14717102 1232.01475525 1279.14717102 C1231.78788025 1279.72467102 1231.56100525 1280.30217102 1231.32725525 1280.89717102 C1229.67388595 1283.73151838 1227.5851158 1285.11479291 1225.01475525 1287.14717102 C1223.32743248 1289.12977528 1221.66109467 1291.13040522 1220.01475525 1293.14717102 C1209.96500141 1303.45070652 1198.94470053 1312.79938249 1188.01475525 1322.14717102 C1187.41969177 1322.6582843 1186.8246283 1323.16939758 1186.21153259 1323.69599915 C1184.54669431 1325.12313629 1182.87585048 1326.54282051 1181.20225525 1327.95967102 C1180.24705994 1328.77049133 1179.29186462 1329.58131165 1178.307724 1330.41670227 C1176.01475525 1332.14717102 1176.01475525 1332.14717102 1174.01475525 1332.14717102 C1173.80850525 1332.72467102 1173.60225525 1333.30217102 1173.38975525 1333.89717102 C1171.50316877 1336.98431254 1169.0608629 1338.23588779 1166.01475525 1340.14717102 C1165.10725525 1340.88967102 1164.19975525 1341.63217102 1163.26475525 1342.39717102 C1161.01475525 1344.14717102 1161.01475525 1344.14717102 1159.01475525 1344.14717102 C1159.01475525 1344.80717102 1159.01475525 1345.46717102 1159.01475525 1346.14717102 C1156.9004919 1347.7922664 1154.78479802 1349.32411395 1152.57725525 1350.83467102 C1151.27280158 1351.74459985 1149.96941346 1352.65605813 1148.667099 1353.56904602 C1148.03271912 1354.01312805 1147.39833923 1354.45721008 1146.74473572 1354.91474915 C1144.65351256 1356.40451693 1142.64147291 1357.97705372 1140.63975525 1359.58467102 C1135.87420746 1363.3577689 1130.85067405 1366.7376403 1125.82798767 1370.15498352 C1122.30527184 1372.55598259 1118.83214555 1374.98373982 1115.45225525 1377.58467102 C1112.75007549 1379.65242596 1109.9760142 1381.38540927 1106.9874115 1383.02607727 C1100.92494929 1386.47147659 1095.11773814 1390.39184743 1089.32725525 1394.27217102 C1083.23223534 1398.35356091 1077.05658223 1402.17510036 1070.62413025 1405.70185852 C1067.44377172 1407.46343435 1064.29236552 1409.27413922 1061.13975525 1411.08467102 C1055.14018509 1414.51992802 1049.10968681 1417.88392195 1043.01475525 1421.14717102 C1042.34879333 1421.50536926 1041.68283142 1421.8635675 1040.99668884 1422.23262024 C1030.53169121 1427.85062315 1019.9648627 1433.15459083 1009.20225525 1438.17842102 C1005.91961433 1439.71187495 1002.67693614 1441.30702206 999.45225525 1442.95967102 C994.75192608 1445.33406411 989.92214354 1447.24666103 985.01475525 1449.14717102 C982.55519844 1450.12340085 980.0967764 1451.10211006 977.63975525 1452.08467102 C976.99216248 1452.34312805 976.3445697 1452.60158508 975.67735291 1452.86787415 C971.83670986 1454.40451649 968.01406702 1455.9774716 964.20225525 1457.58467102 C942.7896155 1466.537994 942.7896155 1466.537994 932.27256775 1469.47920227 C929.7823219 1470.2159359 927.3816365 1471.10480765 924.95225525 1472.02217102 C917.42134493 1474.79287938 909.72989409 1476.9609623 902.01475525 1479.14717102 C900.47053894 1479.58851379 900.47053894 1479.58851379 898.89512634 1480.03877258 C880.379237 1485.31522402 861.79389896 1489.92298953 843.01475525 1494.14717102 C841.75236023 1494.43890198 841.75236023 1494.43890198 840.46446228 1494.73652649 C835.46367888 1495.88211357 830.46289254 1496.76486304 825.38975525 1497.52217102 C820.05961119 1498.33324526 814.74304311 1499.18165171 809.4405365 1500.15888977 C798.26374148 1502.21479955 787.21334007 1503.74745692 775.885849 1504.65107727 C771.74326193 1504.98425933 767.61730328 1505.39722818 763.4874115 1505.86201477 C708.18907441 1512.08258988 653.02642817 1511.43645585 597.81806946 1504.82470703 C593.26190043 1504.28220275 588.70492275 1503.81983294 584.13536072 1503.40913391 C572.31306905 1502.3289715 560.72144649 1499.97576531 549.07579041 1497.7257843 C545.75468953 1497.098012 542.42728884 1496.53086607 539.09263611 1495.98091125 C531.37343114 1494.70263709 523.83480337 1492.93761427 516.25889587 1490.98530579 C511.3818118 1489.72855523 506.51270557 1488.58821259 501.57725525 1487.58467102 C495.98308853 1486.42386503 490.60922845 1484.85826437 485.17100525 1483.11592102 C482.09539185 1482.17192087 479.01953306 1481.38928328 475.88975525 1480.64717102 C471.03020591 1479.47395528 466.43347221 1477.93374417 461.78038025 1476.11201477 C458.91910995 1475.06240273 458.91910995 1475.06240273 455.49131775 1474.29951477 C449.57700652 1472.86753372 443.87838784 1470.77905282 438.13975525 1468.77217102 C437.01955994 1468.38545227 435.89936462 1467.99873352 434.745224 1467.60029602 C428.82990453 1465.5433938 422.97785117 1463.38852614 417.17735291 1461.02705383 C414.3484088 1459.87605874 411.49531518 1458.79268522 408.63975525 1457.70967102 C400.31055545 1454.51141527 392.04064136 1451.26951385 384.11216736 1447.16426086 C381.94362404 1446.11267764 379.7564137 1445.23798184 377.50694275 1444.37373352 C371.62708522 1442.0445172 365.95456272 1439.34032287 360.26475525 1436.58467102 C358.76235291 1435.86247375 358.76235291 1435.86247375 357.229599 1435.12568665 C350.0662498 1431.67684236 342.96107085 1428.151631 335.95225525 1424.39717102 C335.30321228 1424.05009094 334.65416931 1423.70301086 333.98545837 1423.34541321 C331.99472384 1422.28026362 330.004714 1421.21376909 328.01475525 1420.14717102 C327.40518982 1419.82103821 326.79562439 1419.4949054 326.16758728 1419.15888977 C317.65426699 1414.60345497 309.2713825 1410.11001226 301.323349 1404.61201477 C298.64195042 1402.91061973 295.85736994 1401.56329742 293.01475525 1400.14717102 C290.36204586 1398.67214498 287.74920547 1397.13466422 285.13975525 1395.58467102 C284.10721619 1394.98622375 284.10721619 1394.98622375 283.05381775 1394.37568665 C281.33889508 1393.35660066 279.67166069 1392.25809872 278.01475525 1391.14717102 C278.01475525 1390.48717102 278.01475525 1389.82717102 278.01475525 1389.14717102 C277.23100525 1388.96154602 276.44725525 1388.77592102 275.63975525 1388.58467102 C268.29919666 1385.67375985 262.11841571 1380.30748148 255.901474 1375.50654602 C253.98973134 1374.0877704 253.98973134 1374.0877704 251.74131775 1372.79170227 C248.2827476 1370.70565925 244.99820189 1368.41661267 241.70225525 1366.08467102 C241.05707947 1365.63801086 240.41190369 1365.19135071 239.74717712 1364.7311554 C238.13212757 1363.58780286 236.56830981 1362.37277631 235.01475525 1361.14717102 C235.01475525 1360.48717102 235.01475525 1359.82717102 235.01475525 1359.14717102 C234.12788025 1358.92029602 233.24100525 1358.69342102 232.32725525 1358.45967102 C228.49853519 1356.942631 226.89148117 1355.06589294 224.01475525 1352.14717102 C221.99829252 1350.53186136 219.95486265 1348.94980705 217.88975525 1347.39717102 C212.66506286 1343.44013088 207.57056327 1339.3552481 202.5186615 1335.17842102 C200.26667658 1333.35153778 197.978377 1331.61070322 195.63975525 1329.89717102 C192.47070586 1327.55426893 189.73287586 1325.01221707 187.01475525 1322.14717102 C183.52779909 1318.55218524 179.89375536 1315.31370172 176.01475525 1312.14717102 C172.12945422 1308.97549671 168.5427808 1305.70804657 165.01475525 1302.14717102 C164.0372893 1301.17321695 163.05889927 1300.2001896 162.07969666 1299.22798157 C159.21284993 1296.37901254 156.34911872 1293.52693402 153.48643494 1290.67378235 C152.25979805 1289.45217266 151.03226493 1288.23146222 149.80381775 1287.01167297 C143.31780406 1280.57002445 136.89863087 1274.1532622 131.01475525 1267.14717102 C129.6214543 1265.56160878 128.22616108 1263.9777904 126.82725525 1262.39717102 C126.19432556 1261.68045227 125.56139587 1260.96373352 124.9092865 1260.22529602 C122.2058683 1257.25989709 119.35907684 1254.47469643 116.45225525 1251.70967102 C114.14602809 1249.28517581 112.72436145 1246.99651469 111.01475525 1244.14717102 C109.35093515 1242.47766264 107.68382172 1240.81143442 106.01475525 1239.14717102 C100.92556535 1233.29984506 96.02067363 1227.30379043 91.42881775 1221.05732727 C89.8877193 1218.97556722 88.29973236 1216.9359603 86.70225525 1214.89717102 C76.18404937 1201.40342006 66.08633912 1187.64983473 56.94493103 1173.18354797 C54.24779237 1168.94073746 51.36708627 1164.91521311 48.32237244 1160.91523743 C46.86682196 1158.94714621 45.64677883 1156.94188289 44.51475525 1154.77217102 C42.79830622 1151.57432809 41.01815664 1148.44049343 39.13975525 1145.33467102 C29.82957308 1129.91246087 20.93933474 1114.32652082 13.01475525 1098.14717102 C11.8111283 1095.72814251 10.60032031 1093.31273307 9.38975525 1090.89717102 C8.52350525 1089.16273743 8.52350525 1089.16273743 7.63975525 1087.39326477 C6.64400283 1085.40415358 5.64481608 1083.41675135 4.63975525 1081.43232727 C0.26942954 1072.78727673 -3.64800549 1063.94923065 -7.54774475 1055.08467102 C-7.82859924 1054.44835754 -8.10945374 1053.81204407 -8.39881897 1053.15644836 C-10.34941382 1048.70102224 -12.17979722 1044.20494602 -13.97425842 1039.68452454 C-14.94037084 1037.25979469 -15.92435828 1034.84324431 -16.91493225 1032.42842102 C-22.71125537 1018.22529568 -27.57870444 1003.83280716 -32.09144592 989.17866516 C-33.3969659 984.95718904 -34.78447236 980.77070308 -36.2157135 976.59028625 C-42.10476509 959.32856428 -46.15327062 941.58881911 -50.34364319 923.85322571 C-50.87592762 921.60823308 -51.41583065 919.36542148 -51.96180725 917.12373352 C-53.16020792 912.12434486 -54.1701717 907.1659564 -54.90711975 902.07685852 C-55.73443577 896.59142736 -56.73710895 891.16570916 -57.83705139 885.72920227 C-59.86288673 875.70608625 -61.53926844 865.80027493 -62.457901 855.61982727 C-62.86310257 851.1797433 -63.37810249 846.75602232 -63.9188385 842.33076477 C-64.00537186 841.61820526 -64.09190521 840.90564575 -64.18106079 840.17149353 C-64.5305168 837.29778887 -64.88008446 834.42413874 -65.23991394 831.55171204 C-68.15362911 808.236288 -69.28933955 785.04672521 -69.24838122 761.55564921 C-69.24413365 757.81686108 -69.25165554 754.07809091 -69.25753373 750.33930749 C-69.266219 743.81474653 -69.26763555 737.29021699 -69.26403046 730.7656517 C-69.25868385 721.06335883 -69.26485788 711.36109592 -69.27311339 701.6588063 C-69.28829022 683.32087344 -69.29006529 664.98295447 -69.28759036 646.64501665 C-69.28575317 632.48720125 -69.28752621 618.32939038 -69.2918148 604.17157555 C-69.29241722 602.13302997 -69.29301841 600.09448439 -69.29361841 598.05593881 C-69.29452571 594.9836641 -69.29543438 591.9113894 -69.29635076 588.8391147 C-69.3047697 560.30887458 -69.30912298 531.77863615 -69.30494404 503.24839497 C-69.30478766 502.17470167 -69.30463129 501.10100837 -69.30447017 499.99477891 C-69.30366446 494.55357886 -69.30281868 489.11237883 -69.30195687 483.6711788 C-69.30178578 482.59064164 -69.30161469 481.51010448 -69.30143842 480.39682376 C-69.30109177 478.21172577 -69.30074324 476.02662778 -69.30039284 473.84152979 C-69.29503037 439.80773916 -69.3029853 405.77397441 -69.32142639 371.7401886 C-69.34214517 333.45849803 -69.35286994 295.17682349 -69.34885091 256.895127 C-69.34845558 252.81368236 -69.34809403 248.73223772 -69.34775352 244.65079308 C-69.34766279 243.64591358 -69.34757206 242.64103408 -69.34747858 241.60570369 C-69.34631344 226.44761195 -69.35295407 211.28953643 -69.36356544 196.13144875 C-69.37561604 178.90042109 -69.37717741 161.66942915 -69.36477528 144.43840096 C-69.35814893 134.80106613 -69.3597728 125.16381673 -69.37336379 115.52648874 C-69.38161519 109.08428549 -69.37890181 102.64214616 -69.36738852 96.1999481 C-69.3611394 92.53317086 -69.35951237 88.8665602 -69.37125186 85.19979266 C-69.45467091 57.27557383 -69.45467091 57.27557383 -65.98524475 45.14717102 C-65.65143397 43.93561347 -65.65143397 43.93561347 -65.31087953 42.69958001 C-60.67214642 27.240621 -50.90099567 15.41476421 -36.98524475 7.14717102 C-33.86953581 5.90482693 -30.69719712 4.92125863 -27.48524475 3.95967102 C-26.65637756 3.69992493 -25.82751038 3.44017883 -24.973526 3.17256165 C-16.52927516 0.57484696 -8.81195938 -0.00142878 0 0 Z " fill="#23583B" transform="translate(949.9852447509766,650.8528289794922)"/>
<path d="M0 0 C0.76735474 0.0485614 1.53470947 0.0971228 2.32531738 0.14715576 C23.61605858 1.50585999 44.31082667 4.3274424 65.26025391 8.33032227 C68.95094965 8.99121654 72.64005121 9.52979644 76.35546875 10.03125 C82.0283202 10.81118186 87.47480658 11.95030211 93 13.4375 C98.55694743 14.90546028 104.10896836 16.24808886 109.73828125 17.4140625 C116.98472476 18.94543637 124.07546611 20.87803073 131.1875 22.9375 C132.36763672 23.27201172 133.54777344 23.60652344 134.76367188 23.95117188 C141.11906419 25.77654465 147.35148117 27.76312713 153.5300293 30.12133789 C156.19928324 31.0708926 158.88013487 31.80174923 161.625 32.5 C165.91892132 33.62068301 169.74694978 35.14562342 173.75390625 37.03125 C176.13776138 38.05941708 178.50323526 38.7921345 181 39.5 C185.0859917 40.66472799 188.8141711 42.1856424 192.6640625 43.96875 C195.17987922 45.07941156 197.72131677 46.01685037 200.3125 46.9375 C209.79009958 50.32518163 218.91357018 54.39808643 228.02734375 58.65625 C230.4382254 59.74605721 232.82562182 60.72952919 235.3125 61.625 C239.39171996 63.14606507 243.13637057 65.0085032 247 67 C249.35239332 68.19118874 251.70646215 69.37858011 254.0625 70.5625 C255.78146484 71.43068359 255.78146484 71.43068359 257.53515625 72.31640625 C260.98267336 73.99158085 264.47605119 75.4936692 268 77 C274.97802433 80.31987178 281.80414946 83.72654244 288.28125 87.953125 C291.03631532 89.63121024 294.03124737 90.74999889 297 92 C301.64783403 94.37099452 306.06562831 96.99789288 310.375 99.9375 C314.52379402 102.75867993 318.83110132 105.13879182 323.25 107.5078125 C330.84118383 111.62689236 338.02781752 116.30317302 345.1875 121.125 C347.47666332 122.65110888 349.77987835 124.12516738 352.125 125.5625 C359.67946664 130.23536596 366.8131856 135.55968485 373.97265625 140.80859375 C376.23803598 142.44843637 378.51376847 144.06253656 380.80859375 145.66015625 C381.4521582 146.11092529 382.09572266 146.56169434 382.75878906 147.02612305 C384.02909424 147.91453268 385.30311349 148.79765882 386.58105469 149.67504883 C388.08991692 150.73399962 389.55029788 151.86140184 391 153 C391 153.66 391 154.32 391 155 C391.556875 155.061875 392.11375 155.12375 392.6875 155.1875 C395.94344904 156.33148209 397.607132 158.54876936 400 161 C401.65532623 162.01866229 403.32260138 163.01810813 405 164 C406.42462077 165.16559881 407.84746514 166.33394249 409.2421875 167.53515625 C412.14977419 169.95814516 415.20645462 172.1899522 418.2421875 174.44921875 C418.82226562 174.96097656 419.40234375 175.47273437 420 176 C420 176.66 420 177.32 420 178 C420.55042969 178.23203125 421.10085938 178.4640625 421.66796875 178.703125 C424.63314832 180.35210258 426.83313575 182.43545912 429.3125 184.75 C432.54609825 187.74953081 435.78451769 190.69427581 439.1875 193.5 C440.115625 194.325 441.04375 195.15 442 196 C442 196.66 442 197.32 442 198 C442.57878906 198.26167969 443.15757813 198.52335938 443.75390625 198.79296875 C450.82586168 202.5933761 456.85085758 209.40128661 461.9375 215.5 C463.85836082 217.77857215 465.61521236 219.51049536 467.9375 221.4375 C471.70593672 224.59068174 475.05729892 228.05608406 478 232 C478 232.66 478 233.32 478 234 C478.84111328 234.33644531 478.84111328 234.33644531 479.69921875 234.6796875 C482.68505828 236.39312343 484.53354037 238.54816061 486.8125 241.125 C487.6890625 242.11113281 488.565625 243.09726562 489.46875 244.11328125 C490.3040625 245.06589844 491.139375 246.01851562 492 247 C492.6703125 247.75667969 493.340625 248.51335937 494.03125 249.29296875 C495.69996731 251.18491359 497.35275352 253.08936131 499 255 C499.50789063 255.57878906 500.01578125 256.15757812 500.5390625 256.75390625 C504 260.76588687 504 260.76588687 504 263 C504.99 263.33 505.98 263.66 507 264 C508.03435556 265.64556566 509.02763513 267.3170608 510 269 C511.64117972 271.02733965 513.30888487 273.01514279 515 275 C532 295.31548757 532 295.31548757 532 299 C532.66 299 533.32 299 534 299 C535.04296875 300.3984375 535.04296875 300.3984375 536.1875 302.375 C539.82132348 308.42778882 543.77734779 314.28342508 548.25 319.75 C550.27374976 322.35196398 551.52538799 325.05077598 553 328 C555.41819725 331.81858611 557.99554108 335.53135931 560.546875 339.26171875 C563.47987881 343.59319087 566.16463104 347.96710988 568.65209961 352.56884766 C569.97638079 354.957399 571.36805427 357.28899117 572.7890625 359.62109375 C575.95720409 364.88243714 578.94274593 370.22930596 581.875 375.625 C582.65762207 377.06286865 582.65762207 377.06286865 583.45605469 378.52978516 C587.48933263 385.9780378 591.33999948 393.49907927 595.06445312 401.10546875 C596.02311099 403.04680095 597.00079457 404.97743535 597.984375 406.90625 C602.65815045 416.09189444 606.94004568 425.41206886 611.06201172 434.85742188 C612.69127563 438.57903043 614.34801145 442.28843803 616 446 C623.66241793 463.22975058 630.65747193 480.62491383 636.5 498.5625 C637.59022154 501.90370837 638.82810957 505.17682547 640.09057617 508.45654297 C643.06264668 516.19891152 645.57239717 523.98449782 647.82421875 531.96484375 C648.63510746 534.81570626 649.52805342 537.62554375 650.4765625 540.43359375 C658.57425513 564.43957395 664.92801493 589.61926418 669.51416016 614.5246582 C670.11510767 617.58647068 670.80252103 620.62620443 671.48046875 623.671875 C673.01903524 630.80740128 674.07936005 637.94921557 675 645.1875 C675.25100464 647.13571655 675.25100464 647.13571655 675.50708008 649.12329102 C675.84918795 651.79446491 676.18576008 654.46626154 676.51806641 657.13867188 C676.82481455 659.59638647 677.13645076 662.05349956 677.45458984 664.50976562 C679.08279461 677.13065232 680.20464158 689.67086431 680.5736742 702.39403629 C680.59386099 703.0566729 680.61404778 703.71930951 680.63484629 704.40202602 C681.07486042 718.97572347 681.14567004 733.54698501 681.13466892 748.126773 C681.13299607 751.85536367 681.13720866 755.58394931 681.14057809 759.31253821 C681.14567065 765.81147322 681.14716018 772.3104008 681.14612198 778.80933762 C681.14458198 788.47350134 681.14879142 798.13765698 681.1539966 807.80181911 C681.16361189 826.06819852 681.16647854 844.33457509 681.16705366 862.60095673 C681.16751476 876.70286469 681.16958114 890.80477155 681.17275429 904.90667915 C681.17365191 908.97845588 681.17454173 913.05023261 681.17542917 917.12200934 C681.17565021 918.13445004 681.17587126 919.14689074 681.17609901 920.19001146 C681.18224241 948.61844686 681.18620061 977.04688187 681.18575573 1005.47531796 C681.18574015 1006.54459024 681.18572457 1007.61386252 681.18570852 1008.71553699 C681.18562542 1014.13410183 681.18552638 1019.55266667 681.18542381 1024.97123151 C681.1853939 1026.58524409 681.1853939 1026.58524409 681.18536337 1028.23186298 C681.18532294 1030.40779953 681.18528114 1032.58373608 681.18523798 1034.75967262 C681.1846244 1068.66001715 681.19215159 1102.56035169 681.20581055 1136.46069336 C681.22117417 1174.60692103 681.2297768 1212.75314215 681.22884732 1250.89937311 C681.2287727 1254.96643452 681.22872399 1259.03349592 681.22869301 1263.10055733 C681.22868135 1264.1018706 681.2286697 1265.10318387 681.22865769 1266.13483996 C681.22862695 1282.23004075 681.235005 1298.32523283 681.24362527 1314.42043103 C681.25210503 1330.58712295 681.25308896 1346.75380217 681.24651595 1362.92049509 C681.24282414 1372.51763662 681.24464189 1382.1147395 681.25445829 1391.71187693 C681.26046605 1398.1283853 681.25915401 1404.54486574 681.25198779 1410.96137284 C681.2481134 1414.61254148 681.24731007 1418.26363542 681.25544515 1421.91479873 C681.33409157 1459.71440963 681.33409157 1459.71440963 675.9375 1471.8125 C675.63368408 1472.51552246 675.32986816 1473.21854492 675.0168457 1473.94287109 C669.20229049 1486.71937928 659.89463995 1495.55872663 646.82226562 1500.51635742 C634.9755999 1504.8087993 623.51217116 1506.30179912 610.9203186 1506.26069641 C609.65812575 1506.26452196 608.39593289 1506.26834751 607.09549177 1506.27228898 C603.6265143 1506.28248978 600.15764109 1506.28040761 596.68865538 1506.27610838 C592.93395111 1506.27362665 589.17927103 1506.28267315 585.42457581 1506.29014587 C578.08215577 1506.30285466 570.73977236 1506.30469137 563.39734317 1506.30234561 C557.42568208 1506.30055809 551.45403206 1506.30232136 545.48237228 1506.30657005 C544.63045366 1506.30716524 543.77853504 1506.30776043 542.9008007 1506.30837366 C541.16978634 1506.30958548 539.43877199 1506.31079962 537.70775764 1506.31201603 C521.49720375 1506.32287674 505.2866707 1506.32073598 489.07611565 1506.31463119 C474.26826482 1506.30946269 459.46047979 1506.32071832 444.65264197 1506.33972941 C429.42188111 1506.35913251 414.19115134 1506.36735951 398.96037805 1506.36360615 C390.41988926 1506.36169794 381.87945647 1506.36414456 373.33897781 1506.37832069 C366.06875397 1506.39026699 358.7986206 1506.39160306 351.52839543 1506.37953053 C347.82433144 1506.37366471 344.12043266 1506.37247823 340.41637993 1506.38453293 C336.38867357 1506.39748787 332.36135604 1506.38687302 328.33364868 1506.3742218 C327.18031088 1506.38159609 326.02697307 1506.38897037 324.83868563 1506.39656812 C308.32572196 1506.28807372 289.9597881 1501.78045153 277 1491 C273 1486.70731707 273 1486.70731707 273 1484 C272.01 1483.67 271.02 1483.34 270 1483 C268.625 1480.5625 268.625 1480.5625 267 1477 C266.60554688 1476.33226563 266.21109375 1475.66453125 265.8046875 1474.9765625 C256.87159924 1459.30353939 258.57100927 1439.77830298 258.61473083 1422.3868103 C258.61238607 1419.5934849 258.60551759 1416.80017459 258.59886509 1414.00685656 C258.58681254 1407.95548395 258.58568677 1401.90418828 258.59192467 1395.852808 C258.60113769 1386.85314386 258.59303633 1377.85355205 258.58142757 1368.85389361 C258.56232934 1353.70328476 258.55678008 1338.55270003 258.55874443 1323.40208054 C258.56058779 1308.38890866 258.55534323 1293.37576391 258.54106331 1278.36259842 C258.54017343 1277.4269364 258.53928355 1276.49127437 258.53836671 1275.52725896 C258.53379624 1270.77435481 258.52907916 1266.02145082 258.52429188 1261.26854689 C258.51459414 1251.60411956 258.50586178 1241.93969135 258.49742985 1232.27526283 C258.49616347 1230.8241607 258.49616347 1230.8241607 258.4948715 1229.34374338 C258.47503801 1206.33593621 258.46503482 1183.32812616 258.45629883 1160.3203125 C258.45591416 1159.31417691 258.4555295 1158.30804132 258.45513317 1157.27141677 C258.45201765 1149.12080921 258.44892655 1140.97020164 258.44587547 1132.81959406 C258.43708561 1109.3813559 258.42586136 1085.94311925 258.41333008 1062.50488281 C258.41279673 1061.50142976 258.41226338 1060.4979767 258.41171386 1059.46411598 C258.39948113 1036.52268839 258.38516216 1013.58126382 258.36577702 990.63984108 C258.36496216 989.67361496 258.3641473 988.70738884 258.36330775 987.71188314 C258.35513733 978.06091791 258.34669959 968.40995297 258.33781785 958.75898837 C258.31888633 938.08279429 258.3058447 917.4066194 258.30482311 896.7304162 C258.30402635 881.64611323 258.29657229 866.56182647 258.28229337 851.47753011 C258.27407887 842.53904298 258.27137928 833.60059464 258.27684355 824.66210521 C258.27996469 818.66499045 258.27570606 812.66790804 258.26587158 806.67080066 C258.26050462 803.27121161 258.25913336 799.87176325 258.26468485 796.47216551 C258.31887926 760.32381237 256.51105512 724.01758015 247.66992188 688.86523438 C246.99820077 685.99230477 246.46367581 683.12237885 245.96484375 680.21484375 C245.19847335 675.82090805 244.10867417 671.83031851 242.625 667.625 C240.99727081 662.94401111 239.45893257 658.25605069 238.0625 653.5 C234.90382939 643.13242792 230.6481094 633.18112087 226.0859375 623.359375 C225.15562148 621.33811285 224.28403985 619.30718287 223.4375 617.25 C222.11681336 614.26409978 220.62425343 611.55697455 218.96875 608.75390625 C218 607 218 607 216.5 603.4375 C214.98735541 599.97102282 213.10825962 597.12838525 211 594 C210.57267578 592.88044922 210.57267578 592.88044922 210.13671875 591.73828125 C208.47138468 587.72660022 206.08294257 584.19546931 203.74609375 580.55273438 C201 576.20223787 201 576.20223787 201 574 C200.34 574 199.68 574 199 574 C197.85228069 572.22625198 196.7163515 570.44413921 195.62890625 568.6328125 C193.63959819 565.41748005 191.52171584 562.29865086 189.375 559.1875 C188.99077881 558.62458252 188.60655762 558.06166504 188.21069336 557.48168945 C186.31707969 554.74382085 184.42647151 552.27644773 182 550 C180.77928011 548.67799767 179.57140526 547.34404676 178.375 546 C177.76398437 545.319375 177.15296875 544.63875 176.5234375 543.9375 C175 542 175 542 174 539 C173.01 538.175 172.02 537.35 171 536.5 C168 534 168 534 167 531 C165.36497064 529.41441619 165.36497064 529.41441619 163.4375 527.9375 C161.49609375 526.40234375 161.49609375 526.40234375 160 525 C160 524.34 160 523.68 160 523 C159.401875 522.731875 158.80375 522.46375 158.1875 522.1875 C156.00152146 521.00082594 154.58667406 519.90400887 153 518 C153 517.34 153 516.68 153 516 C152.44828125 515.7628125 151.8965625 515.525625 151.328125 515.28125 C148.43225289 513.68754857 146.20487963 511.71082727 143.75 509.5 C142.85796875 508.7059375 141.9659375 507.911875 141.046875 507.09375 C139 505 139 505 139 503 C138.319375 502.79375 137.63875 502.5875 136.9375 502.375 C134.32761023 501.15334947 132.90133133 500.15614238 130.8046875 498.27734375 C127.08257804 495.02508155 123.1865661 492.08831511 119.1875 489.1875 C118.18686523 488.45370117 118.18686523 488.45370117 117.16601562 487.70507812 C113.71110156 485.1486439 113.71110156 485.1486439 110 483 C110 482.34 110 481.68 110 481 C109.195625 480.79375 108.39125 480.5875 107.5625 480.375 C102.08832344 478.26215993 97.5619679 474.80738476 92.78515625 471.4375 C80.20354958 462.9546015 65.84607778 457.10048283 52 451 C50.93136719 450.51917969 49.86273437 450.03835938 48.76171875 449.54296875 C32.17634063 442.23022897 15.17562943 436.98508906 -2.41137695 432.66674805 C-4.37800965 432.16020519 -6.33067325 431.59906215 -8.27514648 431.01318359 C-12.37064793 429.89918143 -16.42036131 429.17606345 -20.609375 428.52734375 C-21.82056 428.3353817 -21.82056 428.3353817 -23.05621338 428.13954163 C-24.75686885 427.87109968 -26.45786571 427.60481251 -28.15917969 427.34057617 C-30.72949289 426.94069047 -33.29836619 426.53239431 -35.8671875 426.12304688 C-37.53117043 425.86147251 -39.19523065 425.6003892 -40.859375 425.33984375 C-41.61184509 425.22003647 -42.36431519 425.10022919 -43.1395874 424.97679138 C-52.56687376 423.52448353 -61.9415462 422.84375617 -71.4765625 422.796875 C-72.43730682 422.78995132 -73.39805115 422.78302765 -74.38790894 422.77589417 C-77.46698142 422.75872727 -80.54588193 422.75230868 -83.625 422.75 C-84.67502197 422.74866058 -85.72504395 422.74732117 -86.80688477 422.74594116 C-102.3982006 422.75025984 -117.61992107 423.20013526 -133 426 C-134.10891602 426.20012695 -134.10891602 426.20012695 -135.24023438 426.40429688 C-138.41977502 426.99331777 -141.5828392 427.63509915 -144.7421875 428.32421875 C-147.94773122 428.98915768 -151.1300941 429.44845832 -154.375 429.875 C-161.11297791 430.85779529 -167.46993668 432.77079321 -173.95703125 434.78125 C-176.5696098 435.58965993 -179.13899198 436.27480813 -181.8046875 436.91796875 C-187.08617499 438.20846796 -192.18350009 440.0219024 -197.3125 441.8125 C-198.28123047 442.14314453 -199.24996094 442.47378906 -200.24804688 442.81445312 C-206.17847379 444.87566221 -211.88511619 447.21270453 -217.56518555 449.88867188 C-219.8491174 450.9311323 -222.14087891 451.8317458 -224.5 452.6875 C-237.03141973 457.59547177 -249.4973429 464.63962922 -260.875 471.8125 C-263 473 -263 473 -266 473 C-266 473.66 -266 474.32 -266 475 C-268.18060462 476.54733314 -270.35208906 477.97558199 -272.625 479.375 C-273.86748352 480.15317339 -275.10967355 480.93181559 -276.3515625 481.7109375 C-276.96161133 482.08959961 -277.57166016 482.46826172 -278.20019531 482.85839844 C-279.9418374 483.96310793 -281.63853222 485.11790445 -283.3359375 486.2890625 C-286 488 -286 488 -288 488 C-288.33 488.99 -288.66 489.98 -289 491 C-291.22265625 492.83203125 -291.22265625 492.83203125 -294.0625 494.8125 C-295.05636719 495.51632812 -296.05023437 496.22015625 -297.07421875 496.9453125 C-298.03972656 497.62335938 -299.00523437 498.30140625 -300 499 C-304.70715108 502.39041033 -308.99263483 505.77602049 -313 510 C-316.18554733 513.26518601 -319.44172148 516.15337718 -323 519 C-325.68835251 521.55393489 -328.12511257 524.15013508 -330.5 527 C-332.87328878 529.84794653 -335.37431717 532.38568376 -338 535 C-344.76217436 541.97223842 -351.02634488 548.99043832 -356.4765625 557.05078125 C-356.97929687 557.69402344 -357.48203125 558.33726562 -358 559 C-358.66 559 -359.32 559 -360 559 C-360.061875 559.53625 -360.12375 560.0725 -360.1875 560.625 C-361.13702142 563.40052416 -362.69109053 565.18436043 -364.6484375 567.33984375 C-366.35204484 569.43242502 -367.62979185 571.67500133 -369 574 C-370.01640796 575.5697188 -371.03318591 577.13921225 -372.05664062 578.7043457 C-381.88817512 593.77214868 -391.8639024 609.91339565 -398.18359375 626.83203125 C-398.99878993 628.99678667 -399.91444835 631.08361967 -400.875 633.1875 C-404.87955563 642.12315551 -408.46511818 651.19042683 -411.5 660.5 C-418.78544351 682.72756331 -428.13925839 704.43869322 -449 717 C-451.68093852 718.06643924 -454.40671077 718.86214795 -457.1875 719.625 C-458.317323 719.94355957 -458.317323 719.94355957 -459.4699707 720.26855469 C-478.74848249 725.59445258 -498.19140716 725.15693425 -518.03857422 725.17700195 C-520.77326687 725.18275477 -523.50795557 725.18991196 -526.24264526 725.19691467 C-534.40899139 725.21653678 -542.57533851 725.22672164 -550.74170226 725.23564246 C-553.82486655 725.23915991 -556.90802985 725.24330526 -559.99119332 725.24748212 C-573.60854016 725.26592653 -587.22588705 725.2816768 -600.84324455 725.28938007 C-604.16421383 725.29128949 -607.4851831 725.29320991 -610.80615234 725.29516602 C-611.63141049 725.29564976 -612.45666864 725.2961335 -613.30693461 725.2966319 C-626.68098806 725.30493576 -640.05495219 725.33028911 -653.42896663 725.36274669 C-667.19755996 725.39588679 -680.96610793 725.41383462 -694.73474133 725.41702431 C-702.4503423 725.4191817 -710.16581252 725.42781803 -717.88137436 725.45348549 C-724.44919451 725.47528684 -731.01685203 725.48319642 -737.58470426 725.47351871 C-740.92867599 725.4690026 -744.27204321 725.47292578 -747.61601257 725.49028015 C-766.82913411 725.58436744 -782.20732391 723.43392631 -800 716 C-800 715.34 -800 714.68 -800 714 C-800.66 713.79375 -801.32 713.5875 -802 713.375 C-814.05917774 707.84787687 -824.97708653 696.08340649 -829.86474609 683.83251953 C-838.3769383 660.62923418 -836.87582065 640.65686201 -830.71337891 616.87304688 C-829.76282603 613.04481064 -829.03999592 609.19878289 -828.375 605.3125 C-827.25111017 599.03580532 -825.73887356 592.94475481 -824.0390625 586.80078125 C-822.93913756 582.77737162 -821.93042065 578.73823526 -820.9375 574.6875 C-819.85749459 570.29725968 -818.71969276 565.9428828 -817.375 561.625 C-816.41813811 558.5508267 -815.69159586 555.54373983 -815.125 552.375 C-814.14748106 547.17785761 -812.57235309 542.20261276 -810.9597168 537.17651367 C-809.52497037 532.70310984 -808.19487977 528.21506114 -806.9375 523.6875 C-805.51074217 518.6222232 -803.85804561 513.71552696 -802.00390625 508.79296875 C-800.87082135 505.64061192 -799.89967856 502.45848135 -798.9375 499.25 C-797.55638645 494.67136677 -795.88414644 490.3963417 -794 486 C-793.33614812 483.92233806 -792.69239371 481.83820794 -792.0625 479.75 C-789.12096859 470.01519604 -785.50453282 460.75161558 -781.4453125 451.4296875 C-780.14911824 448.35385356 -778.9823407 445.27263772 -777.875 442.125 C-776.50689522 438.25247201 -774.90997588 434.67180696 -773.00390625 431.0390625 C-771.84053979 428.67611584 -770.88990161 426.26774066 -769.9375 423.8125 C-768.56281285 420.28752399 -766.94678887 417.24464812 -765 414 C-764.3143088 412.34106968 -763.64966082 410.67336877 -763 409 C-761.606838 405.41379973 -760.03375337 402.27169021 -758 399 C-757.525625 397.88625 -757.05125 396.7725 -756.5625 395.625 C-755.2363623 392.54836054 -753.80313073 389.81178019 -752.0625 386.96875 C-750.83914216 384.70193989 -749.87855911 382.35164433 -748.87890625 379.97998047 C-747.26084445 376.33484681 -745.37243104 372.8318052 -743.5 369.3125 C-743.10941406 368.56677734 -742.71882813 367.82105469 -742.31640625 367.05273438 C-740.42018362 363.47417282 -738.48608536 360.20809219 -736 357 C-735.28523045 355.31054471 -734.57207054 353.62030897 -733.87890625 351.921875 C-732.59543432 349.1153497 -730.94283913 346.59010192 -729.2734375 344 C-727.40249041 341.06158003 -725.70758945 338.03571459 -724 335 C-723.34 335 -722.68 335 -722 335 C-721.76023437 334.15566406 -721.52046875 333.31132813 -721.2734375 332.44140625 C-719.82852506 328.53659688 -717.91407958 325.389821 -715.625 321.9375 C-715.23828125 321.33873047 -714.8515625 320.73996094 -714.453125 320.12304688 C-712.14338251 316.58480041 -709.65110639 313.29397125 -707 310 C-706.0829226 308.36236179 -705.16659803 306.72428541 -704.2578125 305.08203125 C-701.49415679 300.5074086 -698.19096902 296.28163226 -695 292 C-694.505 291.33097656 -694.01 290.66195313 -693.5 289.97265625 C-689.95362652 285.20721689 -686.32435243 280.50485144 -682.68994141 275.80639648 C-679.76727068 272.02271074 -676.92214812 268.19256348 -674.15625 264.29296875 C-673.7746875 263.86628906 -673.393125 263.43960937 -673 263 C-672.34 263 -671.68 263 -671 263 C-670.67708984 261.95199219 -670.67708984 261.95199219 -670.34765625 260.8828125 C-668.6513912 257.25428031 -666.19472221 254.71031719 -663.4375 251.875 C-659.55337385 247.78669109 -655.831271 243.66400603 -652.3125 239.25 C-648.89754119 234.99519599 -645.27839224 231.1320263 -641.3359375 227.36328125 C-639.37006503 225.37439689 -637.54773087 223.3497261 -635.72265625 221.234375 C-632.00888094 216.95388076 -628.0800252 212.93178012 -624.0625 208.9375 C-623.39798828 208.26912109 -622.73347656 207.60074219 -622.04882812 206.91210938 C-617.53098085 202.40302611 -612.84072401 198.15828495 -608 194 C-606.3936336 192.58582811 -604.78898632 191.16969599 -603.1875 189.75 C-602.45917969 189.10546875 -601.73085937 188.4609375 -600.98046875 187.796875 C-598.47453606 185.52324771 -596.13736194 183.14521119 -593.8125 180.6875 C-590.98001028 177.98089871 -588.04037553 175.713889 -584.8671875 173.4296875 C-582.97477958 172.05525547 -582.97477958 172.05525547 -581.4453125 170.3828125 C-580 169 -580 169 -577 168 C-575.84258725 166.8468191 -574.68892276 165.68956537 -573.55712891 164.51123047 C-570.35300907 161.40155631 -566.7257497 158.77681377 -563.1875 156.0625 C-562.03411133 155.17014648 -562.03411133 155.17014648 -560.85742188 154.25976562 C-551.74808514 147.22597397 -542.49815441 140.49749369 -533 134 C-532.27296875 133.49726562 -531.5459375 132.99453125 -530.796875 132.4765625 C-524.86964645 128.43951313 -518.72463823 124.7597399 -512.59521484 121.04101562 C-508.65384526 118.64413686 -504.75182426 116.22170047 -500.9375 113.625 C-497.6303353 111.37994396 -494.25239727 109.39623895 -490.734375 107.5 C-488.47357354 106.25978891 -486.24333506 104.98543751 -484.015625 103.6875 C-483.30414307 103.27669189 -482.59266113 102.86588379 -481.85961914 102.44262695 C-480.430582 101.61687895 -479.00515771 100.78484124 -477.58374023 99.94604492 C-474.04318748 97.91445329 -472.16868813 97 -468 97 C-468 96.34 -468 95.68 -468 95 C-462.76629017 91.99744085 -457.56709705 89.34404087 -452 87 C-450.55830925 86.27915462 -449.12127621 85.54896184 -447.6875 84.8125 C-436.41784572 79.12644716 -424.74826296 74.24590037 -413.0534668 69.51098633 C-408.71509079 67.74368763 -404.47668354 65.8370459 -400.25 63.8125 C-394.95514407 61.32041425 -389.64439463 59.55235987 -384.03125 57.921875 C-381.37539233 57.11416571 -378.87107551 56.19399388 -376.3125 55.125 C-365.30447512 50.57549215 -353.78092909 47.19621891 -342.40771484 43.68603516 C-339.08307324 42.65914786 -335.78244762 41.59163092 -332.5 40.4375 C-328.63042078 39.13209978 -324.69702565 38.13906489 -320.734375 37.1640625 C-319.29686473 36.80757722 -317.85936504 36.45104929 -316.421875 36.09448242 C-315.68807617 35.91299652 -314.95427734 35.73151062 -314.19824219 35.54452515 C-310.75048799 34.69048419 -307.30500023 33.82742584 -303.859375 32.96484375 C-302.50782448 32.62690522 -301.15626196 32.28901466 -299.8046875 31.95117188 C-299.13663086 31.78415771 -298.46857422 31.61714355 -297.78027344 31.44506836 C-295.73632812 30.93408203 -293.69238281 30.4230957 -291.6484375 29.91210938 C-290.97793869 29.74445572 -290.30743988 29.57680206 -289.61662292 29.40406799 C-288.28978394 29.07241624 -286.96289073 28.74098136 -285.63594055 28.40977478 C-282.62210185 27.65727338 -279.6093547 26.90088774 -276.59838867 26.13696289 C-271.3549879 24.80966962 -266.12962793 23.56608452 -260.8125 22.5625 C-255.39691368 21.50916295 -250.04636569 20.3085315 -244.6875 19 C-238.14268015 17.41628762 -231.59456901 16.19406061 -224.94433594 15.14672852 C-219.2373212 14.23868287 -213.59384883 13.11766786 -207.9375 11.9375 C-201.39490504 10.5918819 -194.91828389 9.5301118 -188.26611328 8.85473633 C-183.64344917 8.36460897 -179.08205644 7.6972057 -174.5 6.91015625 C-156.55552393 3.87517716 -138.6532234 2.06758907 -120.5 0.75 C-119.37212067 0.66727844 -118.24424133 0.58455688 -117.08218384 0.49932861 C-77.90296227 -2.33702459 -39.18216098 -2.52637276 0 0 Z " fill="#23583B" transform="translate(2787,655)"/>
<path d="M0 0 C2.31 0.33 4.62 0.66 7 1 C6.125 7.875 6.125 7.875 5 9 C3.00041636 9.04080783 0.99954746 9.04254356 -1 9 C-0.67 6.03 -0.34 3.06 0 0 Z " fill="#49765C" transform="translate(2391,1314)"/>
<path d="M0 0 C1.2065625 0.0309375 1.2065625 0.0309375 2.4375 0.0625 C1.86405063 2.92974686 1.5760485 3.9239515 -0.5625 6.0625 C-1.5525 6.0625 -2.5425 6.0625 -3.5625 6.0625 C-3.605221 4.39638095 -3.60313832 2.72867115 -3.5625 1.0625 C-2.5625 0.0625 -2.5625 0.0625 0 0 Z " fill="#8FA89A" transform="translate(632.5625,2139.9375)"/>
<path d="M0 0 C1.875 0.25 1.875 0.25 4 1 C5.25 3.0625 5.25 3.0625 6 5 C4.02 5 2.04 5 0 5 C0 3.35 0 1.7 0 0 Z " fill="#FCF8F3" transform="translate(2943,1686)"/>
<path d="M0 0 C0 3 0 3 -1.53125 4.82421875 C-2.1809375 5.43910156 -2.830625 6.05398438 -3.5 6.6875 C-4.1496875 7.31011719 -4.799375 7.93273438 -5.46875 8.57421875 C-5.9740625 9.04472656 -6.479375 9.51523438 -7 10 C-7 7 -7 7 -4.625 4.4375 C-3.75875 3.633125 -2.8925 2.82875 -2 2 C-1.34 1.34 -0.68 0.68 0 0 Z " fill="#6C907B" transform="translate(1877,1623)"/>
</svg>
